<svg width="128" height="24" viewBox="0 0 128 24" fill="none" xmlns="http://www.w3.org/2000/svg">
<g clip-path="url(#clip0_4152_3293)">
<path d="M56.6063 4.53003C54.9063 4.53003 53.3936 5.30559 52.4133 6.54212C51.564 5.27863 50.1616 4.53003 48.4962 4.53003C46.9232 4.53003 45.4914 5.25166 44.5047 6.40216L44.3354 6.03107C44.03 5.36209 43.3641 4.93322 42.6289 4.93322H40.5273V18.5993H45.2309V11.1069C45.2309 9.4081 45.9302 8.49515 47.2042 8.49515C48.1896 8.49515 48.7105 9.22705 48.7105 10.6112V18.6005H53.2909V11.1082C53.2909 9.38756 53.953 8.49643 55.2463 8.49643C56.2457 8.49643 56.7705 9.18468 56.7705 10.6125V18.6018H61.4728V10.0296C61.4728 6.81049 59.529 4.53003 56.6037 4.53003" fill="#006A61"/>
<path d="M62.9707 11.7668C62.9707 7.53079 66.1744 4.48633 70.6265 4.48633C75.0787 4.48633 78.2824 7.53079 78.2824 11.7668C78.2824 16.0029 75.0645 19.0473 70.6265 19.0473C66.1885 19.0473 62.9707 15.9888 62.9707 11.7668ZM70.6265 14.819C72.3407 14.819 73.5711 13.5735 73.5711 11.7668C73.5711 9.96019 72.3407 8.71467 70.6265 8.71467C68.9124 8.71467 67.682 9.96019 67.682 11.7668C67.682 13.5735 68.9124 14.819 70.6265 14.819Z" fill="#006A61"/>
<path d="M94.3704 0V18.6006H90.8895L90.4456 17.5862C89.3345 18.5223 87.918 19.0629 86.3271 19.0629C82.138 19.0629 79.1523 16.0146 79.1523 11.7682C79.1523 7.52191 82.1367 4.48772 86.3271 4.48772C87.5883 4.48772 88.7417 4.82799 89.7207 5.43663V0H94.3704ZM90.0132 11.7669C90.0132 9.98213 88.7186 8.63902 86.957 8.63902C85.1954 8.63902 83.9008 9.98213 83.9008 11.7669C83.9008 13.5518 85.1954 14.8936 86.957 14.8936C88.7186 14.8936 90.0132 13.5505 90.0132 11.7669Z" fill="#006A61"/>
<path d="M111.349 4.92041V18.5865H107.713L107.31 17.6196C106.193 18.5261 104.776 19.0487 103.191 19.0487C99.0156 19.0487 96.0312 16.0004 96.0312 11.7541C96.0312 7.50776 99.0156 4.50952 103.191 4.50952C104.799 4.50952 106.235 5.04753 107.363 5.97846L107.844 4.9217H111.349V4.92041ZM106.875 11.7643C106.875 9.99109 105.581 8.65826 103.819 8.65826C102.058 8.65826 100.763 9.99109 100.763 11.7643C100.763 13.5376 102.058 14.8807 103.819 14.8807C105.581 14.8807 106.875 13.5479 106.875 11.7643Z" fill="#006A61"/>
<path d="M122.135 18.6006L118.715 12.8211V18.6006H114.012V0H118.715V10.2877L121.968 4.93457H127.249L122.993 11.4472L127.679 18.6006H122.135Z" fill="#006A61"/>
<path d="M125.628 2.22656H124.524C124.502 2.22656 124.484 2.24454 124.484 2.26637V2.43072C124.484 2.45255 124.502 2.47053 124.524 2.47053H124.944V3.65955C124.944 3.68138 124.962 3.69936 124.983 3.69936H125.167C125.189 3.69936 125.207 3.68138 125.207 3.65955V2.47053H125.628C125.649 2.47053 125.667 2.45255 125.667 2.43072V2.26637C125.667 2.24454 125.649 2.22656 125.628 2.22656Z" fill="#006A61"/>
<path d="M127.227 2.22656H126.979C126.963 2.22656 126.947 2.23683 126.942 2.25353L126.609 3.22298C126.595 3.26278 126.583 3.29745 126.573 3.32955C126.564 3.30259 126.555 3.27306 126.543 3.24095L126.213 2.25481C126.208 2.23812 126.193 2.22785 126.176 2.22785H125.899C125.877 2.22785 125.859 2.24582 125.859 2.26765V3.65955C125.859 3.68138 125.877 3.69936 125.899 3.69936H126.076C126.098 3.69936 126.116 3.68138 126.116 3.65955V2.71321L126.442 3.67111C126.447 3.68652 126.462 3.69807 126.479 3.69807H126.645C126.661 3.69807 126.677 3.6878 126.682 3.67239L127.009 2.72862V3.65955C127.009 3.68138 127.027 3.69936 127.049 3.69936H127.226C127.248 3.69936 127.266 3.68138 127.266 3.65955V2.26765C127.266 2.24582 127.248 2.22785 127.226 2.22785" fill="#006A61"/>
<path d="M15.6432 24C13.7815 24 12.0289 23.1474 10.8793 21.7016C9.51028 23.0562 7.82181 23.7676 6.04738 23.6828C3.31453 23.557 1.585 21.274 1.3964 21.0146C1.3887 21.0056 1.38228 20.9954 1.37587 20.9851C-0.198411 18.72 -0.0508627 16.6104 0.0684591 14.9167C0.123629 14.127 0.833145 10.9542 2.25859 7.78771C4.2537 3.35778 6.77101 0.824364 9.74122 0.255534C12.3971 -0.252946 14.5385 1.15693 15.6432 1.98257C16.7478 1.15693 18.8905 -0.252946 21.5451 0.255534C24.5153 0.824364 27.0326 3.35906 29.0264 7.789C30.4519 10.9554 31.1614 14.1283 31.2166 14.9167C31.3359 16.6116 31.4834 18.72 29.9105 20.9864C29.904 20.9966 29.8976 21.0056 29.8899 21.0159C29.7013 21.2753 27.9718 23.557 25.2389 23.6841C23.4684 23.7676 21.7799 23.0601 20.4071 21.7016C19.2575 23.1487 17.5048 24.0013 15.6432 24.0013M12.5819 18.1371L13.4736 19.4198C13.9739 20.1402 14.7656 20.5536 15.6432 20.5536C16.5208 20.5536 17.3124 20.1402 17.8128 19.4198L18.7045 18.1371C19.0765 17.5914 19.6988 17.2742 20.3519 17.2755C21.0229 17.2819 21.6375 17.6235 21.9993 18.1897C22.4047 18.8407 23.4966 20.3122 25.0811 20.2403C25.9908 20.198 26.835 19.3415 27.1006 18.9948C27.9205 17.7994 27.8948 16.758 27.7832 15.1671C27.6215 13.6096 25.1158 4.44793 20.8985 3.64155C19.4948 3.3719 18.1553 4.39785 17.4368 4.9487C17.2277 5.10921 17.0622 5.23504 16.889 5.34162C16.5118 5.57274 16.15 5.69986 15.7804 5.7294C15.6893 5.7371 15.5983 5.7371 15.5059 5.7294C15.1364 5.69986 14.7733 5.57274 14.3973 5.34162C14.2241 5.23633 14.0599 5.10921 13.8495 4.94999C13.131 4.39913 11.7928 3.37447 10.3879 3.64283C6.16798 4.45049 3.65966 13.6288 3.50313 15.1735C3.39151 16.758 3.36585 17.8019 4.18955 19.0012C4.44103 19.3325 5.29039 20.1992 6.20647 20.2416C7.79102 20.3148 8.88287 18.842 9.27805 18.2064C9.64756 17.6247 10.2634 17.2832 10.9344 17.2768C11.5926 17.2768 12.2098 17.5926 12.5819 18.1384" fill="#006A61"/>
</g>
<defs>
<clipPath id="clip0_4152_3293">
<rect width="127.678" height="24" fill="white"/>
</clipPath>
</defs>
</svg>
